<svg width="241" height="25" viewBox="0 0 241 25" fill="none" xmlns="http://www.w3.org/2000/svg">
<path d="M23.3555 10.9609C23.3555 12.3438 23.1016 13.5664 22.5938 14.6289C22.0859 15.6836 21.3594 16.5664 20.4141 17.2773C19.4688 17.9883 18.3203 18.5273 16.9688 18.8945C15.625 19.2539 14.1133 19.4336 12.4336 19.4336C10.7539 19.4336 9.23438 19.2539 7.875 18.8945C6.52344 18.5273 5.37109 17.9883 4.41797 17.2773C3.46484 16.5664 2.73047 15.6836 2.21484 14.6289C1.69922 13.5664 1.44141 12.3438 1.44141 10.9609C1.44141 9.57812 1.69922 8.35938 2.21484 7.30469C2.73047 6.24219 3.46484 5.35547 4.41797 4.64453C5.37109 3.93359 6.52344 3.39844 7.875 3.03906C9.23438 2.67188 10.7539 2.48828 12.4336 2.48828C14.1133 2.48828 15.625 2.67188 16.9688 3.03906C18.3203 3.39844 19.4688 3.93359 20.4141 4.64453C21.3594 5.35547 22.0859 6.24219 22.5938 7.30469C23.1016 8.35938 23.3555 9.57812 23.3555 10.9609ZM18.9609 10.9609C18.9609 10.3594 18.8633 9.76172 18.668 9.16797C18.4805 8.56641 18.1406 8.02734 17.6484 7.55078C17.1641 7.07422 16.5 6.6875 15.6562 6.39062C14.8125 6.09375 13.7383 5.94531 12.4336 5.94531C11.5586 5.94531 10.7891 6.01562 10.125 6.15625C9.46094 6.28906 8.88672 6.47656 8.40234 6.71875C7.91797 6.96094 7.51172 7.24609 7.18359 7.57422C6.85547 7.89453 6.59375 8.24219 6.39844 8.61719C6.20312 8.98438 6.0625 9.37109 5.97656 9.77734C5.89844 10.1758 5.85938 10.5703 5.85938 10.9609C5.85938 11.3594 5.89844 11.7617 5.97656 12.168C6.0625 12.5742 6.20312 12.9648 6.39844 13.3398C6.59375 13.707 6.85547 14.0508 7.18359 14.3711C7.51172 14.6914 7.91797 14.9727 8.40234 15.2148C8.88672 15.4492 9.46094 15.6367 10.125 15.7773C10.7891 15.9102 11.5586 15.9766 12.4336 15.9766C13.7383 15.9766 14.8125 15.8281 15.6562 15.5312C16.5 15.2344 17.1641 14.8477 17.6484 14.3711C18.1406 13.8945 18.4805 13.3594 18.668 12.7656C18.8633 12.1641 18.9609 11.5625 18.9609 10.9609ZM40.9688 19V17.418C40.4141 17.7227 39.8164 17.9922 39.1758 18.2266C38.543 18.4609 37.8828 18.6602 37.1953 18.8242C36.5078 18.9883 35.7969 19.1094 35.0625 19.1875C34.3359 19.2734 33.6016 19.3164 32.8594 19.3164C31.9922 19.3164 31.1523 19.2344 30.3398 19.0703C29.5352 18.9062 28.8203 18.6406 28.1953 18.2734C27.5703 17.9062 27.0664 17.4258 26.6836 16.832C26.3086 16.2383 26.1211 15.5117 26.1211 14.6523C26.1211 13.5664 26.418 12.6641 27.0117 11.9453C27.6055 11.2188 28.5117 10.625 29.7305 10.1641C30.9492 9.70312 32.4883 9.34766 34.3477 9.09766C36.2148 8.84766 38.4219 8.65234 40.9688 8.51172V8.17188C40.9688 7.90625 40.8984 7.64453 40.7578 7.38672C40.6172 7.12109 40.3594 6.89063 39.9844 6.69531C39.6172 6.49219 39.1094 6.32813 38.4609 6.20312C37.8203 6.07812 37 6.01562 36 6.01562C35.2109 6.01562 34.4297 6.05859 33.6562 6.14453C32.8906 6.22266 32.1484 6.33203 31.4297 6.47266C30.7188 6.61328 30.043 6.77734 29.4023 6.96484C28.7617 7.15234 28.1797 7.34766 27.6562 7.55078V3.68359C28.2031 3.54297 28.8164 3.40625 29.4961 3.27344C30.1758 3.14063 30.8828 3.02734 31.6172 2.93359C32.3516 2.83203 33.0938 2.75391 33.8438 2.69922C34.5938 2.63672 35.3125 2.60547 36 2.60547C37.3516 2.60547 38.5977 2.71875 39.7383 2.94531C40.8789 3.16406 41.8594 3.50781 42.6797 3.97656C43.5078 4.44531 44.1523 5.03906 44.6133 5.75781C45.082 6.47656 45.3164 7.33203 45.3164 8.32422V19H40.9688ZM40.9688 11.6523C39.2969 11.7148 37.875 11.8047 36.7031 11.9219C35.5391 12.0391 34.5703 12.1758 33.7969 12.332C33.0234 12.4883 32.4141 12.6562 31.9688 12.8359C31.5312 13.0156 31.2031 13.1992 30.9844 13.3867C30.7656 13.5742 30.6289 13.7617 30.5742 13.9492C30.5273 14.1367 30.5039 14.3086 30.5039 14.4648C30.5039 14.6523 30.5547 14.8359 30.6562 15.0156C30.7578 15.1875 30.9336 15.3398 31.1836 15.4727C31.4414 15.6055 31.7812 15.7109 32.2031 15.7891C32.625 15.8672 33.1562 15.9062 33.7969 15.9062C34.5078 15.9062 35.2031 15.8516 35.8828 15.7422C36.5625 15.6328 37.207 15.4844 37.8164 15.2969C38.4258 15.1016 38.9961 14.875 39.5273 14.6172C40.0664 14.3516 40.5469 14.0703 40.9688 13.7734V11.6523ZM65.625 19V9.97656C65.625 9.375 65.5742 8.83203 65.4727 8.34766C65.3711 7.85547 65.1797 7.4375 64.8984 7.09375C64.625 6.74219 64.2383 6.47266 63.7383 6.28516C63.2461 6.08984 62.6094 5.99219 61.8281 5.99219C61.2344 5.99219 60.6094 6.07422 59.9531 6.23828C59.3047 6.39453 58.6602 6.60547 58.0195 6.87109C57.3789 7.13672 56.7656 7.44531 56.1797 7.79688C55.6016 8.14844 55.0859 8.51562 54.6328 8.89844V19H50.2852V2.89844H54.6328V5.10156C55.1797 4.78906 55.7617 4.48047 56.3789 4.17578C56.9961 3.86328 57.6523 3.58203 58.3477 3.33203C59.043 3.08203 59.7812 2.87891 60.5625 2.72266C61.3438 2.56641 62.168 2.48828 63.0352 2.48828C64.1211 2.48828 65.0898 2.62109 65.9414 2.88672C66.8008 3.14453 67.5273 3.51563 68.1211 4C68.7148 4.47656 69.168 5.05859 69.4805 5.74609C69.8008 6.42578 69.9609 7.1875 69.9609 8.03125V19H65.625ZM88.5938 19V17.418C88.0391 17.7227 87.4414 17.9922 86.8008 18.2266C86.168 18.4609 85.5078 18.6602 84.8203 18.8242C84.1328 18.9883 83.4219 19.1094 82.6875 19.1875C81.9609 19.2734 81.2266 19.3164 80.4844 19.3164C79.6172 19.3164 78.7773 19.2344 77.9648 19.0703C77.1602 18.9062 76.4453 18.6406 75.8203 18.2734C75.1953 17.9062 74.6914 17.4258 74.3086 16.832C73.9336 16.2383 73.7461 15.5117 73.7461 14.6523C73.7461 13.5664 74.043 12.6641 74.6367 11.9453C75.2305 11.2188 76.1367 10.625 77.3555 10.1641C78.5742 9.70312 80.1133 9.34766 81.9727 9.09766C83.8398 8.84766 86.0469 8.65234 88.5938 8.51172V8.17188C88.5938 7.90625 88.5234 7.64453 88.3828 7.38672C88.2422 7.12109 87.9844 6.89063 87.6094 6.69531C87.2422 6.49219 86.7344 6.32813 86.0859 6.20312C85.4453 6.07812 84.625 6.01562 83.625 6.01562C82.8359 6.01562 82.0547 6.05859 81.2812 6.14453C80.5156 6.22266 79.7734 6.33203 79.0547 6.47266C78.3438 6.61328 77.668 6.77734 77.0273 6.96484C76.3867 7.15234 75.8047 7.34766 75.2812 7.55078V3.68359C75.8281 3.54297 76.4414 3.40625 77.1211 3.27344C77.8008 3.14063 78.5078 3.02734 79.2422 2.93359C79.9766 2.83203 80.7188 2.75391 81.4688 2.69922C82.2188 2.63672 82.9375 2.60547 83.625 2.60547C84.9766 2.60547 86.2227 2.71875 87.3633 2.94531C88.5039 3.16406 89.4844 3.50781 90.3047 3.97656C91.1328 4.44531 91.7773 5.03906 92.2383 5.75781C92.707 6.47656 92.9414 7.33203 92.9414 8.32422V19H88.5938ZM88.5938 11.6523C86.9219 11.7148 85.5 11.8047 84.3281 11.9219C83.1641 12.0391 82.1953 12.1758 81.4219 12.332C80.6484 12.4883 80.0391 12.6562 79.5938 12.8359C79.1562 13.0156 78.8281 13.1992 78.6094 13.3867C78.3906 13.5742 78.2539 13.7617 78.1992 13.9492C78.1523 14.1367 78.1289 14.3086 78.1289 14.4648C78.1289 14.6523 78.1797 14.8359 78.2812 15.0156C78.3828 15.1875 78.5586 15.3398 78.8086 15.4727C79.0664 15.6055 79.4062 15.7109 79.8281 15.7891C80.25 15.8672 80.7812 15.9062 81.4219 15.9062C82.1328 15.9062 82.8281 15.8516 83.5078 15.7422C84.1875 15.6328 84.832 15.4844 85.4414 15.2969C86.0508 15.1016 86.6211 14.875 87.1523 14.6172C87.6914 14.3516 88.1719 14.0703 88.5938 13.7734V11.6523Z" fill="black"/>
<rect x="98" width="39" height="19" rx="9.5" fill="#C49EFF"/>
<path d="M161.242 10.9375C161.242 11.9688 161.129 12.8867 160.902 13.6914C160.676 14.4883 160.355 15.1836 159.941 15.7773C159.535 16.3711 159.043 16.875 158.465 17.2891C157.895 17.7031 157.258 18.0352 156.555 18.2852C155.852 18.5352 155.094 18.7188 154.281 18.8359C153.469 18.9453 152.621 19 151.738 19H141.52V2.89844H151.715C152.598 2.89844 153.445 2.95703 154.258 3.07422C155.07 3.18359 155.828 3.36328 156.531 3.61328C157.242 3.86328 157.887 4.19531 158.465 4.60938C159.043 5.01563 159.535 5.51953 159.941 6.12109C160.355 6.71484 160.676 7.41016 160.902 8.20703C161.129 9.00391 161.242 9.91406 161.242 10.9375ZM156.859 10.9375C156.859 10.1641 156.758 9.49219 156.555 8.92188C156.359 8.35156 156.039 7.88281 155.594 7.51562C155.156 7.14062 154.582 6.86328 153.871 6.68359C153.16 6.49609 152.293 6.40234 151.27 6.40234H145.867V15.4961H151.27C152.293 15.4961 153.16 15.4062 153.871 15.2266C154.582 15.0391 155.156 14.7578 155.594 14.3828C156.039 14 156.359 13.5234 156.555 12.9531C156.758 12.3828 156.859 11.7109 156.859 10.9375ZM178.867 19V17.418C178.312 17.7227 177.715 17.9922 177.074 18.2266C176.441 18.4609 175.781 18.6602 175.094 18.8242C174.406 18.9883 173.695 19.1094 172.961 19.1875C172.234 19.2734 171.5 19.3164 170.758 19.3164C169.891 19.3164 169.051 19.2344 168.238 19.0703C167.434 18.9062 166.719 18.6406 166.094 18.2734C165.469 17.9062 164.965 17.4258 164.582 16.832C164.207 16.2383 164.02 15.5117 164.02 14.6523C164.02 13.5664 164.316 12.6641 164.91 11.9453C165.504 11.2188 166.41 10.625 167.629 10.1641C168.848 9.70312 170.387 9.34766 172.246 9.09766C174.113 8.84766 176.32 8.65234 178.867 8.51172V8.17188C178.867 7.90625 178.797 7.64453 178.656 7.38672C178.516 7.12109 178.258 6.89063 177.883 6.69531C177.516 6.49219 177.008 6.32813 176.359 6.20312C175.719 6.07812 174.898 6.01562 173.898 6.01562C173.109 6.01562 172.328 6.05859 171.555 6.14453C170.789 6.22266 170.047 6.33203 169.328 6.47266C168.617 6.61328 167.941 6.77734 167.301 6.96484C166.66 7.15234 166.078 7.34766 165.555 7.55078V3.68359C166.102 3.54297 166.715 3.40625 167.395 3.27344C168.074 3.14063 168.781 3.02734 169.516 2.93359C170.25 2.83203 170.992 2.75391 171.742 2.69922C172.492 2.63672 173.211 2.60547 173.898 2.60547C175.25 2.60547 176.496 2.71875 177.637 2.94531C178.777 3.16406 179.758 3.50781 180.578 3.97656C181.406 4.44531 182.051 5.03906 182.512 5.75781C182.98 6.47656 183.215 7.33203 183.215 8.32422V19H178.867ZM178.867 11.6523C177.195 11.7148 175.773 11.8047 174.602 11.9219C173.438 12.0391 172.469 12.1758 171.695 12.332C170.922 12.4883 170.312 12.6562 169.867 12.8359C169.43 13.0156 169.102 13.1992 168.883 13.3867C168.664 13.5742 168.527 13.7617 168.473 13.9492C168.426 14.1367 168.402 14.3086 168.402 14.4648C168.402 14.6523 168.453 14.8359 168.555 15.0156C168.656 15.1875 168.832 15.3398 169.082 15.4727C169.34 15.6055 169.68 15.7109 170.102 15.7891C170.523 15.8672 171.055 15.9062 171.695 15.9062C172.406 15.9062 173.102 15.8516 173.781 15.7422C174.461 15.6328 175.105 15.4844 175.715 15.2969C176.324 15.1016 176.895 14.875 177.426 14.6172C177.965 14.3516 178.445 14.0703 178.867 13.7734V11.6523ZM198.988 19H193.926L185.781 2.89844H190.633L196.492 15.0156L202.34 2.89844H207.191L198.988 19ZM209.84 19V2.89844H214.188V19H209.84ZM238.961 10.9375C238.961 11.9688 238.848 12.8867 238.621 13.6914C238.395 14.4883 238.074 15.1836 237.66 15.7773C237.254 16.3711 236.762 16.875 236.184 17.2891C235.613 17.7031 234.977 18.0352 234.273 18.2852C233.57 18.5352 232.812 18.7188 232 18.8359C231.188 18.9453 230.34 19 229.457 19H219.238V2.89844H229.434C230.316 2.89844 231.164 2.95703 231.977 3.07422C232.789 3.18359 233.547 3.36328 234.25 3.61328C234.961 3.86328 235.605 4.19531 236.184 4.60938C236.762 5.01563 237.254 5.51953 237.66 6.12109C238.074 6.71484 238.395 7.41016 238.621 8.20703C238.848 9.00391 238.961 9.91406 238.961 10.9375ZM234.578 10.9375C234.578 10.1641 234.477 9.49219 234.273 8.92188C234.078 8.35156 233.758 7.88281 233.312 7.51562C232.875 7.14062 232.301 6.86328 231.59 6.68359C230.879 6.49609 230.012 6.40234 228.988 6.40234H223.586V15.4961H228.988C230.012 15.4961 230.879 15.4062 231.59 15.2266C232.301 15.0391 232.875 14.7578 233.312 14.3828C233.758 14 234.078 13.5234 234.273 12.9531C234.477 12.3828 234.578 11.7109 234.578 10.9375Z" fill="black"/>
</svg>
