<svg width="146" height="149" viewBox="0 0 146 149" fill="none" xmlns="http://www.w3.org/2000/svg">
<path d="M0 72.3847L0 75.7195L145.677 75.7195V72.3847L0 72.3847Z" fill="#231F20"/>
<path d="M74.4802 0L71.1992 0L71.1992 148.065H74.4802L74.4802 0Z" fill="#231F20"/>
<path d="M20.1859 125.23L22.5059 127.588L125.514 22.8909L123.194 20.5329L20.1859 125.23Z" fill="#231F20"/>
<path d="M22.486 20.5121L20.166 22.8701L123.174 127.567L125.494 125.209L22.486 20.5121Z" fill="#231F20"/>
<path d="M85.8314 74.0276C85.8314 66.7342 80.0143 60.8218 72.8385 60.8218C65.6628 60.8218 59.8457 66.7342 59.8457 74.0276C59.8457 81.3209 65.6628 87.2334 72.8385 87.2334C80.0143 87.2334 85.8314 81.3209 85.8314 74.0276Z" fill="#231F20"/>
</svg>
